<?xml version="1.0" standalone="no"?>
<!DOCTYPE svg PUBLIC "-//W3C//DTD SVG 20010904//EN"
 "http://www.w3.org/TR/2001/REC-SVG-20010904/DTD/svg10.dtd">
<svg version="1.0" xmlns="http://www.w3.org/2000/svg"
 width="775.000000pt" height="775.000000pt" viewBox="0 0 775.000000 775.000000"
 preserveAspectRatio="xMidYMid meet">
<metadata>
Created by potrace 1.11, written by Peter Selinger 2001-2013
</metadata>
<g transform="translate(0.000000,775.000000) scale(0.100000,-0.100000)"
fill="#000000" stroke="none">
<path d="M3615 7460 c-17 -9 -36 -30 -44 -47 l-14 -31 -33 35 c-31 33 -37 35
-78 31 -49 -6 -79 -28 -97 -73 -8 -21 -13 -25 -17 -15 -13 37 -58 60 -103 55
-39 -5 -89 -53 -89 -87 0 -21 -2 -20 -31 8 -24 23 -39 29 -74 29 -52 0 -79
-22 -100 -81 -8 -21 -14 -33 -15 -26 0 22 -60 51 -99 47 -42 -4 -91 -52 -91
-90 0 -14 -4 -25 -10 -25 -5 0 -10 4 -10 8 0 5 -15 15 -33 24 -28 13 -39 14
-69 3 -50 -17 -66 -36 -74 -84 l-7 -42 -21 20 c-61 57 -166 9 -166 -76 l0 -35
-32 20 c-75 44 -158 -8 -158 -99 0 -31 -1 -31 -19 -15 -22 20 -78 24 -109 7
-30 -16 -55 -67 -50 -103 4 -23 2 -28 -11 -22 -9 3 -32 8 -52 11 -65 9 -117
-48 -107 -117 4 -28 -9 -40 -26 -23 -3 4 -16 8 -29 10 -74 12 -140 -85 -101
-149 5 -8 2 -9 -12 -3 -59 25 -127 2 -149 -51 l-11 -28 -13 31 c-29 72 -151
78 -183 9 -14 -32 -20 -32 -33 -4 -6 12 -25 31 -43 41 -29 17 -39 18 -74 8
-26 -8 -45 -22 -56 -42 -21 -35 -26 -36 -40 -4 -16 34 -66 58 -105 50 -35 -8
-77 -41 -77 -62 0 -22 -15 -15 -33 17 -24 39 -82 58 -123 39 -15 -8 -39 -29
-51 -48 -13 -19 -23 -28 -23 -20 -1 8 -9 24 -19 36 -50 60 -146 47 -177 -24
-7 -16 -13 -21 -13 -12 -1 21 -51 66 -81 74 -44 11 -120 -33 -120 -69 0 -6 -7
0 -16 12 -61 88 -203 43 -191 -60 5 -40 40 -88 64 -88 20 0 15 -18 -7 -25 -25
-8 -60 -57 -60 -85 0 -36 29 -86 57 -99 l26 -12 -24 -17 c-49 -33 -60 -54 -54
-100 5 -43 23 -70 60 -90 19 -10 19 -11 -6 -22 -30 -14 -59 -58 -59 -92 0 -31
34 -85 59 -93 19 -6 17 -9 -21 -45 -39 -37 -40 -42 -34 -82 7 -44 39 -88 63
-88 7 0 13 -4 13 -10 0 -5 -6 -10 -14 -10 -8 0 -26 -14 -41 -32 -38 -45 -31
-101 18 -143 l35 -31 -33 -22 c-61 -39 -57 -129 7 -166 l31 -19 -25 -15 c-31
-18 -58 -62 -58 -92 0 -33 29 -80 55 -90 14 -5 25 -14 25 -20 0 -6 -4 -9 -9
-6 -12 8 -60 -43 -67 -71 -10 -38 9 -86 42 -108 l31 -21 -36 -31 c-32 -27 -36
-36 -36 -76 0 -34 6 -52 24 -71 14 -14 30 -26 38 -26 22 0 14 -14 -20 -35 -64
-41 -58 -125 12 -172 23 -16 28 -23 16 -23 -24 0 -75 -57 -75 -85 0 -42 22
-84 53 -104 29 -18 30 -20 12 -27 -80 -30 -86 -134 -11 -183 l28 -19 -31 -18
c-34 -20 -54 -59 -49 -96 5 -34 33 -75 58 -83 28 -9 25 -18 -9 -33 -35 -15
-54 -58 -47 -102 5 -34 41 -80 63 -80 22 0 15 -14 -17 -32 -36 -20 -54 -61
-45 -104 6 -34 52 -87 66 -78 5 3 9 1 9 -5 0 -5 -9 -13 -21 -16 -25 -8 -59
-61 -59 -93 0 -35 28 -82 56 -92 25 -10 25 -30 -1 -30 -7 0 -23 -16 -35 -36
-31 -48 -19 -109 26 -139 l30 -20 -39 -37 c-36 -34 -39 -40 -34 -80 4 -34 12
-49 40 -72 l36 -29 -31 -21 c-41 -27 -54 -67 -39 -116 8 -27 20 -42 41 -52 37
-16 37 -21 4 -38 -29 -16 -54 -58 -54 -90 0 -30 27 -74 59 -93 l26 -17 -22 -6
c-27 -8 -63 -62 -63 -95 0 -32 34 -86 59 -94 19 -6 17 -9 -19 -44 -29 -27 -40
-46 -40 -67 0 -37 32 -90 59 -99 24 -7 28 -25 7 -25 -8 0 -26 -14 -41 -32 -21
-25 -26 -39 -22 -70 5 -40 40 -88 64 -88 22 0 14 -14 -19 -35 -40 -25 -54 -65
-40 -114 12 -39 54 -71 92 -71 34 0 86 29 97 53 11 22 11 22 23 -5 13 -27 63
-58 95 -58 26 0 72 30 86 57 14 25 29 31 29 10 0 -18 39 -53 68 -62 34 -10 90
13 109 46 21 35 25 36 38 7 6 -12 25 -31 43 -41 29 -17 39 -18 74 -8 26 8 45
22 56 42 10 16 19 29 22 29 3 0 12 -13 22 -29 11 -20 30 -34 56 -42 35 -10 45
-9 74 8 18 10 37 29 43 41 13 29 21 28 37 -5 9 -18 27 -33 54 -42 49 -17 87
-3 119 45 l21 31 12 -26 c14 -31 58 -58 90 -55 12 1 28 2 35 3 18 1 52 32 60
53 8 21 27 24 27 4 0 -8 13 -25 29 -39 30 -25 72 -29 113 -12 14 5 15 2 9 -27
-20 -89 60 -148 151 -113 15 6 16 2 11 -28 -6 -40 17 -88 53 -107 22 -12 73
-10 108 5 16 7 17 5 11 -23 -7 -34 6 -66 38 -95 19 -16 26 -18 65 -20 26 -1
62 13 62 24 0 6 4 8 9 5 4 -3 7 -18 5 -33 -8 -77 84 -134 152 -94 l32 19 5
-39 c6 -48 21 -68 65 -86 27 -11 41 -12 68 -3 19 6 34 16 34 22 0 23 25 -1 27
-27 3 -34 46 -81 81 -88 27 -5 66 7 93 30 15 12 17 10 23 -20 14 -76 101 -107
165 -59 31 22 46 28 37 14 -10 -16 24 -72 54 -87 42 -22 92 -13 124 21 l23 26
7 -29 c10 -37 42 -71 76 -78 36 -8 95 17 110 45 12 22 13 21 30 -16 31 -71
110 -86 165 -31 l32 32 22 -37 c16 -28 30 -39 56 -44 57 -10 94 5 125 54 10
15 12 15 17 2 4 -8 19 -27 34 -42 49 -49 134 -28 161 41 10 25 10 25 18 5 5
-12 21 -31 37 -44 51 -40 142 -14 157 46 l7 25 34 -37 c32 -34 38 -36 80 -31
53 5 81 27 90 69 l7 30 28 -31 c16 -17 33 -31 37 -32 4 0 17 -2 28 -4 50 -10
115 41 115 91 0 15 6 12 31 -12 58 -56 160 -29 173 46 3 23 24 29 36 11 11
-17 47 -29 80 -26 41 4 90 52 90 90 0 30 5 31 32 5 33 -30 98 -27 132 6 14 15
27 31 27 35 1 5 3 14 4 19 1 6 3 20 4 33 1 12 4 17 9 11 52 -74 182 -31 182
61 0 35 1 35 23 20 51 -33 110 -23 146 26 15 20 21 39 17 59 -2 17 0 32 5 36
5 3 9 1 9 -4 0 -16 53 -29 87 -22 53 12 91 68 78 118 -5 21 -3 23 17 15 13 -4
42 -8 65 -8 61 1 88 30 88 95 0 48 14 66 31 39 8 -14 68 -5 100 15 29 20 46
78 33 113 -8 22 -7 24 8 18 57 -24 122 -3 146 46 l13 28 19 -35 c35 -65 140
-65 174 -1 15 29 31 36 31 14 0 -19 40 -54 71 -62 36 -9 96 18 111 49 14 32
22 33 36 1 6 -13 26 -31 43 -41 44 -22 104 -5 127 37 17 28 32 38 32 19 0 -10
46 -59 58 -61 63 -12 114 9 133 52 l12 30 14 -28 c37 -78 149 -77 187 0 13 28
14 28 20 9 4 -12 21 -33 38 -47 24 -21 38 -25 65 -20 47 7 66 19 82 48 l13 25
28 -32 c24 -26 35 -31 75 -31 40 0 51 5 76 33 44 50 35 118 -21 150 -32 18
-39 32 -16 32 20 0 66 61 66 87 0 41 -22 82 -51 95 -16 7 -29 15 -29 18 0 3
16 15 35 27 62 40 56 134 -11 174 l-25 15 24 13 c28 15 57 61 57 91 0 33 -28
78 -58 94 l-27 14 27 12 c68 32 75 135 11 175 -34 21 -42 35 -19 35 8 0 26 14
41 32 22 26 26 39 22 71 -5 40 -40 87 -64 87 -21 0 -15 18 8 25 25 8 59 62 59
94 0 32 -39 88 -65 95 -18 6 -17 8 11 26 73 47 68 143 -10 187 -17 10 -16 12
12 28 32 20 52 52 52 88 0 31 -34 84 -59 92 -23 7 -29 25 -8 25 8 0 24 12 38
26 34 36 34 102 0 138 -14 14 -30 26 -38 26 -22 0 -14 14 19 35 41 26 54 65
39 115 -8 27 -20 42 -41 52 -35 15 -38 24 -9 33 25 8 59 61 59 92 0 36 -19 68
-52 88 l-30 18 31 19 c64 41 64 138 0 175 -31 19 -38 33 -15 33 24 0 66 59 66
92 0 35 -32 84 -60 93 -23 7 -27 25 -6 25 23 0 66 63 66 98 0 33 -42 92 -66
92 -23 0 -15 14 19 35 62 39 60 131 -4 169 l-31 18 28 19 c32 21 53 55 54 87
0 37 -35 92 -59 92 -23 0 -20 21 4 32 30 13 55 55 55 90 0 32 -34 85 -59 93
-23 7 -29 25 -8 25 21 0 56 43 63 75 8 42 -10 83 -46 103 -32 18 -39 32 -17
32 8 0 24 12 38 26 18 19 24 37 24 69 0 32 -6 50 -24 69 -14 14 -30 26 -38 26
-22 0 -14 14 20 35 64 40 57 143 -11 174 l-25 12 31 19 c44 27 62 88 39 136
-9 19 -28 40 -42 46 -31 14 -32 24 -2 32 26 6 57 54 57 88 0 31 -34 85 -59 93
-27 8 -27 21 2 29 33 8 61 60 54 103 -7 38 -41 83 -64 83 -22 0 -15 14 17 32
60 34 66 104 15 155 -32 32 -39 35 -78 30 -29 -4 -50 -15 -68 -35 l-27 -30
-11 22 c-39 71 -147 67 -184 -7 -9 -19 -16 -25 -16 -15 -1 20 -54 66 -86 74
-31 8 -89 -21 -105 -51 -14 -27 -30 -33 -30 -12 0 21 -42 54 -77 62 -39 8 -89
-16 -105 -50 -6 -14 -14 -25 -18 -25 -4 0 -12 11 -18 25 -14 31 -64 57 -98 51
-36 -7 -75 -34 -81 -57 -7 -26 -15 -24 -35 10 -11 20 -30 34 -56 42 -35 10
-45 9 -74 -8 -18 -10 -37 -29 -43 -41 -13 -29 -23 -28 -35 2 -25 68 -148 66
-179 -2 l-13 -26 -16 27 c-30 49 -85 64 -146 41 -14 -5 -15 -2 -7 19 14 36 -4
93 -35 114 -28 18 -76 22 -110 10 -18 -6 -20 -4 -16 23 6 40 -14 85 -45 105
-25 17 -78 17 -117 0 -16 -7 -18 -5 -11 23 9 42 -17 88 -60 106 -33 14 -56 12
-106 -8 -12 -5 -15 0 -13 23 3 44 -29 88 -73 100 -31 9 -44 7 -75 -8 l-38 -18
0 33 c0 52 -44 95 -97 96 -23 0 -52 -7 -64 -16 -29 -20 -40 -20 -33 -2 3 8 -2
30 -11 49 -16 34 -47 54 -90 58 -26 3 -75 -17 -75 -31 0 -5 -4 -10 -10 -10 -5
0 -10 11 -10 25 0 36 -48 84 -91 90 -27 4 -44 0 -73 -20 -20 -14 -38 -25 -39
-25 -2 0 -3 9 -4 21 -7 83 -110 114 -175 52 l-28 -27 0 23 c0 14 -15 37 -35
57 -46 43 -92 42 -140 -3 l-33 -32 -6 25 c-11 42 -53 74 -99 74 -32 0 -46 -6
-72 -35 l-33 -34 -12 29 c-15 37 -50 60 -91 60 -37 0 -87 -27 -95 -52 -6 -21
-24 -24 -24 -4 0 22 -59 66 -88 66 -49 0 -68 -11 -94 -51 -23 -36 -27 -38 -33
-20 -8 25 -51 56 -85 63 -14 2 -39 -3 -55 -12z m195 -170 c0 -3 -18 -5 -40 -5
-43 0 -49 5 -25 25 8 7 15 20 15 29 0 11 8 7 25 -14 13 -16 24 -32 25 -35z
m188 33 c17 -38 16 -40 -23 -39 -38 1 -43 7 -20 26 8 7 15 19 15 26 0 23 14
16 28 -13z m-411 -45 c-17 -11 -57 -10 -57 1 0 6 5 13 10 16 6 3 10 16 10 28
0 20 2 20 24 -8 17 -21 21 -32 13 -37z m620 23 l19 -39 -29 9 c-17 5 -34 6
-38 3 -15 -9 -10 13 6 26 8 7 15 19 15 26 0 23 7 16 27 -25z m-829 -22 c21
-26 22 -29 5 -30 -10 0 -28 -2 -41 -5 -22 -4 -22 -3 -8 25 9 16 12 31 9 35 -4
3 -2 6 3 5 5 0 19 -13 32 -30z m1032 2 c0 -9 5 -22 12 -29 14 -14 6 -15 -41
-6 l-31 6 23 28 c23 29 37 30 37 1z m-1230 -73 c-8 -4 -25 -7 -37 -7 -20 -1
-20 1 -10 34 l11 36 25 -28 c21 -23 23 -29 11 -35z m1444 -6 c-1 -2 -18 0 -38
4 l-37 6 28 28 28 28 10 -32 c6 -17 10 -32 9 -34z m-514 34 c57 -4 107 -9 110
-10 3 -2 34 -7 70 -10 199 -21 549 -114 755 -201 389 -165 716 -377 1002 -649
l68 -65 685 0 c377 0 692 0 700 0 13 -1 15 -277 15 -2421 l0 -2420 -45 -1
c-25 0 -330 -1 -679 -1 -657 -1 -674 -2 -717 -43 -54 -51 -114 -104 -164 -145
-30 -25 -57 -47 -60 -50 -40 -45 -298 -217 -460 -309 -205 -116 -575 -264
-740 -296 -8 -2 -35 -8 -60 -15 -76 -21 -183 -41 -289 -56 -25 -3 -57 -8 -71
-10 -148 -23 -592 -22 -694 1 -11 3 -41 7 -66 9 -25 3 -54 7 -65 9 -11 2 -42
8 -70 11 -39 6 -160 33 -270 60 -104 26 -292 91 -382 132 -17 8 -33 14 -36 14
-9 0 -269 128 -323 158 -76 44 -258 160 -294 189 -143 112 -240 193 -310 260
l-85 81 -700 0 -700 0 0 2421 c0 2151 2 2421 15 2422 8 0 312 0 675 0 622 0
662 2 702 19 24 10 53 29 67 42 311 301 750 569 1165 710 165 56 363 108 468
123 21 4 45 8 53 10 8 2 42 7 75 11 33 3 69 8 80 10 11 2 70 7 130 10 61 4
111 7 112 8 5 3 242 -2 333 -8z m-1153 -39 c4 -8 17 -19 27 -24 18 -10 16 -12
-20 -22 -46 -13 -64 -14 -47 -3 7 5 14 20 15 35 3 29 12 35 25 14z m1855 -4
c0 -4 4 -18 9 -30 5 -13 7 -23 6 -23 -15 1 -88 29 -76 29 9 1 24 10 34 21 18
20 26 21 27 3z m-2013 -90 c4 -3 -64 -33 -74 -33 -3 0 -1 9 5 19 5 11 10 30
10 42 l0 22 28 -24 c15 -13 29 -25 31 -26z m2223 -20 c14 -17 1 -15 -47 7 -22
10 -33 19 -24 19 9 1 24 11 35 22 l19 21 3 -28 c2 -16 8 -35 14 -41z m183 -34
c-2 -12 0 -30 6 -40 12 -24 11 -23 -42 1 -24 11 -38 20 -31 20 8 0 25 9 39 20
32 25 33 25 28 -1z m-2624 -8 l32 -20 -38 -15 c-47 -20 -48 -20 -37 2 5 9 8
25 7 35 -4 21 -3 21 36 -2z m2813 -139 c-1 -2 -19 4 -39 14 l-36 17 30 15 c17
8 32 20 32 26 1 6 5 -7 8 -29 4 -22 6 -42 5 -43z m-3002 49 l36 -18 -34 -17
c-19 -9 -36 -16 -37 -16 -1 0 -2 16 -2 35 0 19 0 35 0 35 1 0 17 -8 37 -19z
m-202 -90 c0 -5 11 -12 25 -15 30 -8 25 -20 -13 -40 l-27 -14 0 39 c0 21 3 39
8 39 4 0 7 -4 7 -9z m3385 -29 l0 -39 -32 16 c-18 9 -33 19 -33 22 0 3 15 13
33 22 17 8 32 16 32 16 1 1 1 -16 0 -37z m-3542 -96 l38 -13 -28 -18 c-29 -19
-40 -20 -35 -4 1 6 -2 19 -8 29 -6 11 -9 20 -8 20 2 0 20 -6 41 -14z m3713
-21 c0 -19 -1 -35 -4 -35 -2 0 -18 10 -34 22 l-30 21 28 13 c40 17 39 18 40
-21z m167 -127 l-5 -37 -29 21 c-35 26 -36 33 -8 35 12 1 27 7 32 12 14 14 15
12 10 -31z m-4039 21 l25 -12 -25 -20 c-28 -22 -29 -22 -38 16 -7 30 0 33 38
16z m-136 -144 c1 -1 -11 -13 -27 -28 -24 -21 -29 -23 -29 -9 1 9 -2 27 -6 39
-7 21 -6 22 26 11 18 -6 34 -12 36 -13z m4333 -8 c-4 -12 -6 -29 -3 -37 5 -13
3 -13 -13 0 -51 41 -52 44 -20 56 38 13 46 9 36 -19z m-5641 -69 c0 -6 7 -19
15 -28 13 -15 11 -16 -28 -14 -23 1 -43 3 -45 3 -1 1 6 11 18 23 11 12 20 26
20 30 0 5 5 6 10 3 6 -3 10 -11 10 -17z m217 -11 l20 -33 -39 1 c-21 0 -38 2
-38 3 0 5 34 62 36 62 1 0 11 -15 21 -33z m228 -27 c-4 -7 -71 -6 -68 0 0 3 7
18 14 33 l13 28 22 -28 c12 -15 21 -30 19 -33z m189 35 c4 -14 11 -25 16 -25
6 0 10 -4 10 -8 0 -4 -18 -8 -40 -7 -43 0 -48 6 -25 25 8 7 15 19 15 26 0 24
17 15 24 -11z m236 -38 c0 -1 -18 -2 -40 -2 -37 -1 -39 0 -27 20 8 11 17 26
21 33 6 10 13 5 27 -17 10 -18 19 -32 19 -34z m208 10 c14 -16 13 -17 -30 -16
l-45 2 20 35 c18 31 21 32 30 15 5 -10 17 -26 25 -36z m4789 20 l20 -33 -42 0
-42 0 21 33 c11 18 22 33 23 33 0 0 10 -15 20 -33z m223 -14 c15 -19 13 -20
-30 -19 -22 0 -39 3 -37 6 1 3 9 18 17 33 13 27 15 28 27 10 7 -10 17 -23 23
-30z m201 14 l16 -33 -38 1 c-22 0 -38 2 -36 5 1 3 9 17 16 33 18 34 22 34 42
-6z m199 19 c0 -7 7 -19 15 -26 20 -17 11 -24 -31 -25 -37 -1 -42 6 -19 25 8
7 15 19 15 26 0 8 5 14 10 14 6 0 10 -6 10 -14z m221 -13 c6 -16 11 -30 12
-33 3 -8 -64 -6 -69 2 -3 4 -1 8 4 8 5 0 14 11 20 25 15 32 20 31 33 -2z m209
5 c0 -6 7 -19 15 -28 13 -14 10 -16 -29 -15 l-43 0 21 32 c20 30 36 35 36 11z
m-7123 -17 l22 -28 -31 2 c-29 3 -30 1 -26 -31 2 -19 2 -33 -1 -31 -4 1 -18 9
-33 16 -29 15 -37 31 -16 31 16 0 58 41 58 57 0 19 4 17 27 -16z m7363 -29
c16 -9 30 -19 30 -22 0 -3 -14 -13 -30 -22 -21 -12 -30 -13 -31 -5 -1 7 -2 21
-3 32 -1 14 -8 20 -23 19 -27 -2 -28 0 -6 32 17 26 17 26 25 5 4 -12 21 -29
38 -39z m-7400 -233 l0 -40 -30 18 -30 17 28 23 c15 12 28 22 30 23 1 0 2 -18
2 -41z m7390 26 c7 -8 19 -15 26 -15 23 0 16 -14 -16 -32 -21 -12 -30 -13 -31
-5 0 7 -2 24 -3 40 -2 30 6 34 24 12z m20 -225 l25 -13 -23 -10 c-12 -6 -22
-14 -22 -19 0 -20 -18 -5 -23 19 -5 30 2 60 12 45 3 -5 17 -15 31 -22z m-7406
-10 c-1 -41 -7 -44 -43 -22 l-32 20 25 6 c14 3 26 11 26 16 0 6 6 10 13 10 7
0 12 -12 11 -30z m7426 -222 c0 -5 -4 -7 -8 -4 -5 3 -19 -4 -30 -15 -12 -11
-22 -16 -23 -12 0 4 -1 24 -2 44 l-2 35 33 -19 c17 -10 32 -23 32 -29z m-7430
2 l0 -39 -34 22 c-33 22 -33 22 -10 30 13 5 24 13 24 18 0 5 5 9 10 9 6 0 10
-18 10 -40z m3 -242 c-4 -7 -63 23 -63 32 0 3 12 12 28 21 27 15 27 15 33 -15
3 -17 4 -34 2 -38z m7400 53 c29 -15 36 -31 13 -31 -7 0 -19 -7 -26 -15 -20
-24 -25 -18 -25 25 0 22 2 39 5 37 3 -1 17 -9 33 -16z m-7401 -242 l4 -35 -33
20 c-34 22 -42 36 -19 36 7 0 20 7 27 16 15 18 16 15 21 -37z m7388 36 c7 -8
19 -15 26 -15 23 0 16 -16 -13 -29 -34 -16 -36 -14 -37 27 -1 35 5 40 24 17z
m12 -257 l-27 -18 -6 28 c-9 45 0 54 32 30 l29 -22 -28 -18z m-7402 12 l0 -41
-22 21 c-12 11 -27 20 -32 20 -12 0 34 39 47 40 4 0 7 -18 7 -40z m-1 -233
c-3 -5 -21 0 -38 11 l-32 20 26 6 c14 4 29 14 33 24 5 12 8 8 12 -18 4 -19 3
-39 -1 -43z m7416 40 c17 -9 23 -16 14 -17 -8 0 -25 -9 -37 -20 -12 -11 -22
-20 -24 -20 -3 0 -1 74 1 90 1 3 5 0 9 -6 4 -6 21 -18 37 -27z m-35 -187 c0
-6 13 -16 28 -23 l29 -12 -34 -22 c-18 -12 -33 -19 -34 -15 -4 42 -3 82 4 82
4 0 7 -5 7 -10z m-7380 -40 l0 -39 -30 17 c-32 18 -39 32 -16 32 7 0 19 7 26
15 18 22 20 19 20 -25z m4 -248 c-1 -1 -15 5 -33 15 -33 19 -40 33 -17 33 7 0
20 7 27 17 13 14 15 12 19 -23 3 -21 5 -40 4 -42z m7426 36 c0 -5 -6 -8 -14
-8 -7 0 -19 -7 -26 -15 -17 -21 -28 -4 -22 34 4 29 4 29 33 12 16 -9 29 -19
29 -23z m-7430 -213 l0 -45 -20 20 c-11 11 -26 20 -32 20 -10 0 38 48 50 50 1
0 2 -20 2 -45z m7418 15 c21 0 13 -16 -15 -31 -16 -7 -30 -15 -33 -16 -3 -2
-5 9 -4 24 1 16 3 34 3 42 1 11 5 11 19 -2 10 -10 24 -17 30 -17z m-7418 -227
l0 -46 -23 21 c-13 12 -27 19 -30 15 -4 -3 -7 -1 -7 6 0 6 11 17 25 23 14 6
25 15 25 20 0 4 2 8 5 8 3 0 5 -21 5 -47z m7380 39 c0 -5 12 -14 27 -21 l26
-12 -24 -16 c-13 -9 -27 -22 -31 -27 -9 -13 -9 -13 -11 42 -1 23 1 42 6 42 4
0 7 -4 7 -8z m-7380 -249 c0 -44 -1 -45 -18 -30 -10 10 -24 17 -30 17 -21 0
-13 16 13 28 14 6 25 16 25 22 0 5 2 10 5 10 3 0 5 -21 5 -47z m7430 3 c0 -1
-13 -12 -29 -24 l-29 -21 -4 43 -3 42 33 -19 c17 -10 32 -20 32 -21z m0 -218
c0 -5 -5 -8 -12 -8 -6 0 -20 -7 -30 -17 -17 -15 -18 -15 -19 13 0 16 -2 36 -4
45 -2 14 2 13 31 -5 18 -11 33 -24 34 -28z m-7428 -14 c-4 -21 -5 -21 -33 -5
-16 9 -29 18 -29 21 0 3 12 12 28 21 24 13 28 13 33 0 3 -8 4 -25 1 -37z m-2
-199 l0 -45 -20 20 c-11 11 -24 20 -30 20 -5 0 -10 5 -10 10 0 6 6 10 14 10 7
0 19 7 26 15 18 22 20 19 20 -30z m7430 4 c0 -3 -12 -12 -27 -20 -16 -7 -30
-15 -33 -16 -4 -2 -4 64 -1 74 2 4 61 -32 61 -38z m-7434 -246 c-3 -3 -16 4
-30 14 -19 15 -22 23 -13 32 6 6 17 11 24 11 7 0 14 6 15 13 1 6 3 -5 5 -27 3
-21 2 -40 -1 -43z m7428 25 c-3 -4 -12 -8 -20 -8 -8 0 -14 -4 -14 -10 0 -5 -4
-10 -9 -10 -10 0 -18 38 -13 62 3 16 6 16 32 -4 16 -12 27 -25 24 -30z m-7424
-204 c0 -40 -2 -44 -15 -30 -8 8 -25 18 -36 21 -20 7 -20 8 10 22 17 9 31 19
31 24 0 5 2 9 5 9 3 0 5 -21 5 -46z m7408 -13 c-15 -7 -28 -19 -28 -25 0 -7
-3 -7 -8 1 -4 7 -6 28 -4 47 l4 34 32 -22 33 -21 -29 -14z m14 -191 c4 0 8 -4
8 -10 0 -5 -6 -10 -14 -10 -8 0 -22 -7 -30 -16 -17 -16 -18 -14 -18 36 0 17 1
32 1 35 1 3 11 -3 23 -15 12 -11 25 -20 30 -20z m-7422 -12 c0 -39 -1 -40 -18
-25 -10 10 -24 17 -30 17 -20 0 -13 15 16 32 15 10 28 18 30 18 1 0 2 -19 2
-42z m7430 -210 c0 -5 -6 -8 -14 -8 -7 0 -19 -7 -26 -15 -17 -21 -23 -13 -24
33 l-1 38 32 -21 c18 -11 32 -23 33 -27z m-7430 2 l0 -39 -30 17 c-16 9 -30
19 -30 22 0 4 45 35 58 39 1 1 2 -17 2 -39z m2 -221 l4 -35 -33 20 c-34 22
-42 36 -19 36 7 0 20 7 27 16 15 18 16 15 21 -37z m7416 21 c21 0 13 -14 -17
-32 -33 -18 -40 -12 -33 34 4 27 6 28 21 13 10 -8 23 -15 29 -15z m-7416 -241
c-4 -28 -4 -28 -25 -9 -11 11 -24 17 -29 14 -4 -3 -8 0 -8 6 0 6 11 16 25 22
14 6 25 16 26 22 0 6 4 3 8 -8 4 -10 5 -31 3 -47z m7406 4 c-15 -7 -29 -18
-29 -25 -1 -7 -4 1 -8 17 -4 17 -5 37 -3 46 3 15 7 14 36 -5 l33 -21 -29 -12z
m-7408 -198 l0 -44 -33 22 -34 22 29 14 c15 7 28 17 28 22 0 5 2 9 5 9 3 0 5
-20 5 -45z m7380 37 c0 -5 11 -14 25 -20 27 -13 34 -32 11 -32 -8 0 -22 -7
-30 -16 -9 -8 -16 -14 -17 -12 -5 23 -2 88 4 88 4 0 7 -4 7 -8z m43 -242 c6 0
-1 -11 -18 -24 -34 -27 -43 -21 -37 28 4 33 4 34 23 15 10 -10 25 -19 32 -19z
m-7423 -12 c0 -39 -1 -40 -18 -25 -10 10 -24 17 -30 17 -20 0 -13 14 16 32 15
9 28 17 30 17 1 1 2 -18 2 -41z m13 -230 c7 -4 17 -6 24 -3 7 2 15 0 18 -5 4
-6 2 -10 -4 -10 -5 0 -13 -9 -16 -21 -7 -20 -9 -19 -40 15 -18 20 -38 36 -44
36 -6 0 -11 5 -11 10 0 6 6 10 14 10 7 0 20 8 27 17 13 15 14 13 17 -13 2 -16
9 -32 15 -36z m7417 20 c0 -5 -5 -8 -12 -8 -17 0 -58 -41 -58 -59 0 -12 -6 -9
-20 9 -25 32 -25 38 2 36 13 0 23 5 24 12 1 6 2 21 3 32 1 18 2 18 31 2 16 -9
30 -20 30 -24z m-7172 -27 c9 -1 10 -4 2 -13 -6 -7 -16 -21 -23 -30 -11 -15
-14 -13 -33 16 l-21 32 31 -2 c17 -1 37 -2 44 -3z m222 0 c-1 -4 -11 -18 -23
-32 l-22 -27 -20 32 -21 31 43 1 c24 0 43 -2 43 -5z m205 -3 c3 -3 -1 -11 -10
-18 -8 -7 -15 -19 -15 -26 0 -8 -4 -14 -10 -14 -5 0 -10 6 -10 14 0 7 -7 19
-15 26 -8 7 -15 15 -15 19 0 8 67 7 75 -1z m215 5 c0 -1 -8 -16 -18 -33 l-19
-30 -21 29 c-14 20 -18 31 -10 33 14 5 68 6 68 1z m206 -12 c-7 -9 -18 -24
-23 -34 -9 -17 -12 -16 -30 15 l-19 33 43 1 c38 0 42 -1 29 -15z m217 10 c4
-1 3 -7 -3 -13 -6 -7 -16 -21 -23 -30 -11 -15 -14 -13 -33 17 l-22 33 37 -3
c20 -2 40 -4 44 -4z m4797 4 c0 -1 -7 -16 -16 -34 -14 -29 -34 -34 -34 -9 0 6
-7 19 -16 29 -14 16 -12 17 25 16 23 -1 41 -2 41 -2z m198 -35 l-21 -30 -17
28 c-17 27 -17 27 14 33 44 8 49 2 24 -31z m221 31 c11 -1 11 -5 -2 -19 -10
-10 -17 -24 -17 -30 0 -7 -4 -12 -10 -12 -5 0 -10 6 -10 14 0 7 -7 19 -15 26
-29 24 -18 28 54 21z m221 2 c0 -1 -8 -16 -18 -33 l-19 -30 -21 29 c-12 16
-17 31 -12 33 12 4 70 5 70 1z m202 -12 c-2 -8 -9 -23 -17 -34 -14 -20 -14
-19 -26 6 -7 15 -16 27 -21 27 -5 0 -7 3 -5 8 9 14 72 7 69 -7z m228 7 c0 -5
-4 -8 -10 -8 -5 0 -16 -12 -23 -27 l-15 -27 -16 32 c-9 17 -16 33 -16 34 0 2
18 4 40 3 22 0 40 -3 40 -7z m-1313 -70 c-2 -7 0 -25 4 -40 7 -27 -3 -39 -16
-18 -3 6 -16 10 -28 10 -21 0 -20 2 8 29 34 34 38 36 32 19z m-4347 -21 l27
-24 -37 -10 -38 -10 8 28 c5 15 6 30 2 33 -16 17 14 3 38 -17z m169 -151 c1
-5 -11 -15 -27 -22 -30 -12 -30 -12 -23 14 5 15 6 33 3 41 -3 10 3 9 20 -5 13
-10 25 -23 27 -28z m4024 3 l5 -37 -26 13 c-14 8 -29 12 -34 9 -4 -3 -8 -2 -8
1 0 6 54 55 56 52 1 -1 4 -18 7 -38z m-3874 -146 c-17 -7 -32 -13 -33 -13 -2
0 1 61 3 68 1 1 15 -7 31 -20 l30 -22 -31 -13z m3708 22 c2 -34 -9 -46 -22
-25 -3 6 -16 10 -28 10 -21 0 -20 1 7 25 16 14 32 25 35 25 3 0 7 -16 8 -35z
m-3529 -103 l23 -15 -31 -18 c-17 -11 -31 -19 -33 -19 -1 0 -2 18 -2 39 0 23
4 37 10 33 6 -3 20 -12 33 -20z m3357 -17 c0 -19 -1 -35 -2 -35 -2 0 -16 8
-33 19 l-31 18 23 16 c35 24 43 20 43 -18z m-3185 -81 l33 -17 -24 -18 c-33
-25 -36 -24 -41 16 -2 19 -3 35 -3 35 1 0 17 -7 35 -16z m3004 -21 c-2 -21 -3
-39 -3 -40 -1 -2 -10 6 -21 17 -11 11 -28 20 -37 20 -11 1 -5 8 17 20 47 26
47 26 44 -17z m-2801 -100 c-10 -7 -24 -17 -30 -23 -10 -8 -13 -6 -13 7 0 10
-3 28 -6 41 l-7 23 37 -18 c34 -16 36 -18 19 -30z m2614 12 c-1 -19 -3 -35 -4
-35 -2 0 -17 9 -34 19 l-31 19 29 15 c40 21 42 21 40 -18z m-2441 -60 l36 -15
-29 -24 -28 -25 -3 27 c-2 15 -8 33 -14 40 -14 16 -5 15 38 -3z m2250 -7 c-3
-13 -6 -31 -6 -41 0 -17 -3 -16 -29 5 -35 27 -38 38 -12 38 11 0 23 5 26 10
12 19 27 10 21 -12z m-2050 -61 l32 -12 -27 -26 -27 -27 -11 39 c-11 43 -12
43 33 26z m1859 -4 c-4 -10 -8 -25 -9 -33 -3 -16 -9 -15 -45 8 l-24 16 34 12
c47 17 52 17 44 -3z m-208 -74 l-11 -36 -27 26 -26 26 36 11 c20 6 37 10 38
10 1 -1 -4 -17 -10 -37z m-1439 22 l23 -6 -28 -27 -28 -27 -11 34 c-12 38 -7
41 44 26z m204 -39 c16 -7 16 -10 -5 -34 l-23 -27 -16 35 c-15 33 -15 34 6 33
11 0 29 -4 38 -7z m1033 -22 c-9 -16 -12 -30 -9 -30 4 0 5 -3 1 -6 -3 -4 -17
7 -31 22 l-25 29 27 6 c52 12 54 11 37 -21z m-807 -10 c1 0 -7 -9 -18 -20 -11
-11 -20 -26 -20 -32 0 -7 -9 2 -20 20 -29 47 -31 46 58 32z m607 -9 c-8 -10
-15 -26 -15 -37 0 -16 -4 -14 -24 11 -13 16 -23 32 -21 35 2 3 20 6 40 7 33 1
35 -1 20 -16z m-409 -11 c-7 -8 -18 -24 -23 -34 -10 -18 -12 -17 -27 12 -9 17
-16 32 -16 34 0 2 18 3 39 3 34 0 38 -2 27 -15z m212 11 c2 -1 -4 -8 -12 -17
-9 -8 -16 -23 -16 -32 0 -12 -7 -9 -24 13 -21 26 -22 31 -8 36 12 4 43 4 60 0z"/>
<path d="M3668 7186 c-1 -2 -37 -6 -78 -10 -41 -3 -84 -8 -95 -10 -11 -2 -42
-7 -68 -10 -27 -4 -57 -9 -67 -11 -9 -2 -35 -6 -56 -9 -74 -12 -309 -75 -414
-111 -100 -35 -334 -130 -355 -145 -5 -4 -52 -29 -103 -56 -51 -27 -101 -53
-110 -59 -76 -45 -153 -93 -183 -115 -20 -14 -47 -32 -59 -40 -75 -50 -246
-189 -315 -256 -61 -60 -115 -92 -167 -100 -29 -4 -335 -7 -681 -6 l-627 0 2
-2366 3 -2367 683 -1 682 -1 88 -86 c48 -47 103 -98 122 -114 19 -15 40 -32
46 -38 56 -52 361 -265 380 -265 3 0 19 -9 34 -20 41 -29 270 -142 382 -189
171 -70 508 -168 639 -185 19 -3 63 -9 99 -15 124 -20 236 -26 470 -25 216 1
393 17 535 48 402 87 729 219 1070 430 70 44 301 209 315 225 3 3 36 33 75 66
38 33 90 79 115 103 25 23 52 44 60 47 34 11 139 20 205 19 109 -3 284 -4 743
-2 l422 1 0 2367 0 2368 -686 -1 -686 0 -76 74 c-42 41 -79 76 -82 79 -42 43
-268 218 -345 267 -444 284 -830 428 -1350 504 -70 10 -557 23 -567 15z"/>
</g>
</svg>
